<?xml version="1.0" encoding="UTF-8" standalone="no"?>
<!-- Created with Inkscape (http://www.inkscape.org/) -->

<svg
   xmlns:dc="http://purl.org/dc/elements/1.1/"
   xmlns:cc="http://creativecommons.org/ns#"
   xmlns:rdf="http://www.w3.org/1999/02/22-rdf-syntax-ns#"
   xmlns:svg="http://www.w3.org/2000/svg"
   xmlns="http://www.w3.org/2000/svg"
   xmlns:sodipodi="http://sodipodi.sourceforge.net/DTD/sodipodi-0.dtd"
   xmlns:inkscape="http://www.inkscape.org/namespaces/inkscape"
   id="svg2"
   version="1.1"
   inkscape:version="0.48.4 r9939"
   width="336.64001"
   height="336.64001"
   xml:space="preserve"
   sodipodi:docname="chain.svg"><metadata
     id="metadata8"><rdf:RDF><cc:Work
         rdf:about=""><dc:format>image/svg+xml</dc:format><dc:type
           rdf:resource="http://purl.org/dc/dcmitype/StillImage" /><dc:title /></cc:Work></rdf:RDF></metadata><defs
     id="defs6"><clipPath
       clipPathUnits="userSpaceOnUse"
       id="clipPath20"><path
         d="m 103.104,38.016 266.112,0 0,266.112 -266.112,0 0,-266.112 z"
         id="path22"
         inkscape:connector-curvature="0" /></clipPath><clipPath
       clipPathUnits="userSpaceOnUse"
       id="clipPath30"><path
         d="m -3.5,-3.5 7,0 0,7 -7,0 0,-7 z"
         id="path32"
         inkscape:connector-curvature="0" /></clipPath><clipPath
       clipPathUnits="userSpaceOnUse"
       id="clipPath42"><path
         d="m -3.5,-3.5 7,0 0,7 -7,0 0,-7 z"
         id="path44"
         inkscape:connector-curvature="0" /></clipPath><clipPath
       clipPathUnits="userSpaceOnUse"
       id="clipPath54"><path
         d="m -3.5,-3.5 7,0 0,7 -7,0 0,-7 z"
         id="path56"
         inkscape:connector-curvature="0" /></clipPath><clipPath
       clipPathUnits="userSpaceOnUse"
       id="clipPath66"><path
         d="m -3.5,-3.5 7,0 0,7 -7,0 0,-7 z"
         id="path68"
         inkscape:connector-curvature="0" /></clipPath><clipPath
       clipPathUnits="userSpaceOnUse"
       id="clipPath78"><path
         d="m -3.5,-3.5 7,0 0,7 -7,0 0,-7 z"
         id="path80"
         inkscape:connector-curvature="0" /></clipPath><clipPath
       clipPathUnits="userSpaceOnUse"
       id="clipPath90"><path
         d="m -3.5,-3.5 7,0 0,7 -7,0 0,-7 z"
         id="path92"
         inkscape:connector-curvature="0" /></clipPath><clipPath
       clipPathUnits="userSpaceOnUse"
       id="clipPath102"><path
         d="m -3.5,-3.5 7,0 0,7 -7,0 0,-7 z"
         id="path104"
         inkscape:connector-curvature="0" /></clipPath><clipPath
       clipPathUnits="userSpaceOnUse"
       id="clipPath114"><path
         d="m -3.5,-3.5 7,0 0,7 -7,0 0,-7 z"
         id="path116"
         inkscape:connector-curvature="0" /></clipPath><clipPath
       clipPathUnits="userSpaceOnUse"
       id="clipPath126"><path
         d="m -3.5,-3.5 7,0 0,7 -7,0 0,-7 z"
         id="path128"
         inkscape:connector-curvature="0" /></clipPath><clipPath
       clipPathUnits="userSpaceOnUse"
       id="clipPath138"><path
         d="m -3.5,-3.5 7,0 0,7 -7,0 0,-7 z"
         id="path140"
         inkscape:connector-curvature="0" /></clipPath><clipPath
       clipPathUnits="userSpaceOnUse"
       id="clipPath150"><path
         d="m -3.5,-3.5 7,0 0,7 -7,0 0,-7 z"
         id="path152"
         inkscape:connector-curvature="0" /></clipPath></defs><sodipodi:namedview
     pagecolor="#ffffff"
     bordercolor="#666666"
     borderopacity="1"
     objecttolerance="10"
     gridtolerance="10"
     guidetolerance="10"
     inkscape:pageopacity="0"
     inkscape:pageshadow="2"
     inkscape:window-width="854"
     inkscape:window-height="640"
     id="namedview4"
     showgrid="false"
     inkscape:zoom="2.1851852"
     inkscape:cx="147.46789"
     inkscape:cy="132.73235"
     inkscape:window-x="162"
     inkscape:window-y="55"
     inkscape:window-maximized="0"
     inkscape:current-layer="layer2"
     fit-margin-left="2"
     fit-margin-top="2"
     fit-margin-right="2"
     fit-margin-bottom="2" /><g
     id="g10"
     inkscape:groupmode="layer"
     inkscape:label="figure_3"
     transform="matrix(1.25,0,0,-1.25,-126.88,382.16)"><path
       d="m 0,0 460.8,0 0,345.6 L 0,345.6 0,0 z"
       style="fill:#ffffff;fill-opacity:1;fill-rule:nonzero;stroke:none"
       id="path12"
       inkscape:connector-curvature="0" /><path
       d="m 103.104,38.016 266.112,0 0,266.112 -266.112,0 0,-266.112 z"
       style="fill:#ffffff;fill-opacity:1;fill-rule:nonzero;stroke:none"
       id="path14"
       inkscape:connector-curvature="0" /><g
       id="g16"><g
         id="g18"
         clip-path="url(#clipPath20)"><g
           id="g24"
           transform="translate(236.16,171.072)"><g
             id="g26"><g
               id="g28"
               clip-path="url(#clipPath30)" /></g><g
             id="g36"
             transform="translate(-21.118128,-67.882528)"><g
               id="g38"><g
                 id="g40"
                 clip-path="url(#clipPath42)" /></g><g
               id="g48"
               transform="translate(-59.151962,71.46458)"><g
                 id="g50"><g
                   id="g52"
                   clip-path="url(#clipPath54)" /></g><g
                 id="g60"
                 transform="translate(128.53648,68.958217)"><g
                   id="g62"><g
                     id="g64"
                     clip-path="url(#clipPath66)" /></g><g
                   id="g72"
                   transform="translate(-22.929257,-54.249498)"><g
                     id="g74"><g
                       id="g76"
                       clip-path="url(#clipPath78)" /></g><g
                     id="g84"
                     transform="translate(-146.7649,-5.6991745)"><g
                       id="g86"><g
                         id="g88"
                         clip-path="url(#clipPath90)" /></g><g
                       id="g96"
                       transform="translate(96.181437,74.408558)"><g
                         id="g98"><g
                           id="g100"
                           clip-path="url(#clipPath102)" /></g><g
                         id="g108"
                         transform="translate(-29.596327,34.810847)"><g
                           id="g110"><g
                             id="g112"
                             clip-path="url(#clipPath114)" /></g><g
                           id="g120"
                           transform="translate(-30.514454,-32.566633)"><g
                             id="g122"><g
                               id="g124"
                               clip-path="url(#clipPath126)" /></g><g
                             id="g132"
                             transform="translate(-26.161075,-8.1824618)"><g
                               id="g134"><g
                                 id="g136"
                                 clip-path="url(#clipPath138)" /></g><g
                               id="g144"
                               transform="translate(85.699684,-159.27063)"><g
                                 id="g146"><g
                                   id="g148"
                                   clip-path="url(#clipPath150)" /></g></g></g></g></g></g></g></g></g></g></g></g></g></g><g
       id="g156"><path
         d="m 103.104,38.016 0,266.112"
         style="fill:none;stroke:#000000;stroke-width:0.80000001;stroke-linecap:square;stroke-linejoin:miter;stroke-miterlimit:10;stroke-opacity:1;stroke-dasharray:none"
         id="path158"
         inkscape:connector-curvature="0" /><path
         d="m 369.216,38.016 0,266.112"
         style="fill:none;stroke:#000000;stroke-width:0.80000001;stroke-linecap:square;stroke-linejoin:miter;stroke-miterlimit:10;stroke-opacity:1;stroke-dasharray:none"
         id="path160"
         inkscape:connector-curvature="0" /><path
         d="m 103.104,38.016 266.112,0"
         style="fill:none;stroke:#000000;stroke-width:0.80000001;stroke-linecap:square;stroke-linejoin:miter;stroke-miterlimit:10;stroke-opacity:1;stroke-dasharray:none"
         id="path162"
         inkscape:connector-curvature="0" /><path
         d="m 103.104,304.128 266.112,0"
         style="fill:none;stroke:#000000;stroke-width:0.80000001;stroke-linecap:square;stroke-linejoin:miter;stroke-miterlimit:10;stroke-opacity:1;stroke-dasharray:none"
         id="path164"
         inkscape:connector-curvature="0" /></g></g><g
     inkscape:groupmode="layer"
     id="layer2"
     inkscape:label="viiva"
     transform="translate(-126.88,-49.84)"><path
       style="fill:none;stroke:#000000;stroke-width:1px;stroke-linecap:butt;stroke-linejoin:miter;stroke-opacity:1"
       d="m 314.98446,302.46478 -33.34173,-9.74026 13.64117,-73.69274 22.29593,-9.55233 37.23796,-82.1406 -91.64869,-17.33961 -36.97882,-44.304523 -37.53659,40.934293 -33.0063,10.51671 -12.4101,86.04072 51.25424,10.52542"
       id="path3950"
       inkscape:connector-curvature="0"
       sodipodi:nodetypes="ccccccccccc" /><path
       style="fill:none;stroke:#000000;stroke-width:1;stroke-linecap:butt;stroke-linejoin:miter;stroke-opacity:1;stroke-miterlimit:4;stroke-dasharray:4,4;stroke-dashoffset:0"
       d="M 155.13559,242.82646 C 67.271185,163.65697 67.271185,163.65697 67.271185,163.65697"
       id="path3062"
       inkscape:connector-curvature="0"
       transform="translate(126.88,49.84)" /></g><g
     inkscape:groupmode="layer"
     id="layer1"
     inkscape:label="Taso"
     style="display:inline"
     transform="translate(-126.88,-49.84)"><path
       sodipodi:type="star"
       style="fill:#ff000c;fill-opacity:1"
       id="path3141"
       sodipodi:sides="5"
       sodipodi:cx="293.17365"
       sodipodi:cy="293.50296"
       sodipodi:r1="45.441242"
       sodipodi:r2="22.720625"
       sodipodi:arg1="-0.30373449"
       sodipodi:arg2="0.32458404"
       inkscape:flatsided="false"
       inkscape:rounded="3.5876867e-08"
       inkscape:randomized="0"
       d="m 336.53487,279.91213 -21.82699,20.83677 4.79077,29.79324 -26.56186,-14.31979 -26.85462,13.76291 5.41086,-29.68688 -21.38784,-21.28729 29.90595,-4.02772 13.63621,-26.91918 13.07204,27.19762 z"
       transform="matrix(0.14470607,0,0,0.14470607,272.76058,259.80593)"
       inkscape:transform-center-x="-0.02118566"
       inkscape:transform-center-y="-0.60773098" /><path
       inkscape:transform-center-y="-0.60773098"
       inkscape:transform-center-x="-0.02118566"
       transform="matrix(0.14470607,0,0,0.14470607,239.61512,249.85747)"
       d="m 336.53487,279.91213 -21.82699,20.83677 4.79077,29.79324 -26.56186,-14.31979 -26.85462,13.76291 5.41086,-29.68688 -21.38784,-21.28729 29.90595,-4.02772 13.63621,-26.91918 13.07204,27.19762 z"
       inkscape:randomized="0"
       inkscape:rounded="3.5876867e-08"
       inkscape:flatsided="false"
       sodipodi:arg2="0.32458404"
       sodipodi:arg1="-0.30373449"
       sodipodi:r2="22.720625"
       sodipodi:r1="45.441242"
       sodipodi:cy="293.50296"
       sodipodi:cx="293.17365"
       sodipodi:sides="5"
       id="path3911"
       style="fill:#ff000c;fill-opacity:1"
       sodipodi:type="star" /><path
       sodipodi:type="star"
       style="fill:#ff000c;fill-opacity:1"
       id="path3913"
       sodipodi:sides="5"
       sodipodi:cx="293.17365"
       sodipodi:cy="293.50296"
       sodipodi:r1="45.441242"
       sodipodi:r2="22.720625"
       sodipodi:arg1="-0.30373449"
       sodipodi:arg2="0.32458404"
       inkscape:flatsided="false"
       inkscape:rounded="3.5876867e-08"
       inkscape:randomized="0"
       d="m 336.53487,279.91213 -21.82699,20.83677 4.79077,29.79324 -26.56186,-14.31979 -26.85462,13.76291 5.41086,-29.68688 -21.38784,-21.28729 29.90595,-4.02772 13.63621,-26.91918 13.07204,27.19762 z"
       transform="matrix(0.14470607,0,0,0.14470607,152.10751,171.07171)"
       inkscape:transform-center-x="-0.02118566"
       inkscape:transform-center-y="-0.60773098" /><path
       sodipodi:type="star"
       style="fill:#ff000c;fill-opacity:1"
       id="path3915"
       sodipodi:sides="5"
       sodipodi:cx="293.17365"
       sodipodi:cy="293.50296"
       sodipodi:r1="45.441242"
       sodipodi:r2="22.720625"
       sodipodi:arg1="-0.30373449"
       sodipodi:arg2="0.32458404"
       inkscape:flatsided="false"
       inkscape:rounded="3.5876867e-08"
       inkscape:randomized="0"
       d="m 336.53487,279.91213 -21.82699,20.83677 4.79077,29.79324 -26.56186,-14.31979 -26.85462,13.76291 5.41086,-29.68688 -21.38784,-21.28729 29.90595,-4.02772 13.63621,-26.91918 13.07204,27.19762 z"
       transform="matrix(0.14470607,0,0,0.14470607,275.39578,166.86502)"
       inkscape:transform-center-x="-0.02118566"
       inkscape:transform-center-y="-0.60773098" /><path
       sodipodi:type="star"
       style="fill:#ff000c;fill-opacity:1"
       id="path3919"
       sodipodi:sides="5"
       sodipodi:cx="293.17365"
       sodipodi:cy="293.50296"
       sodipodi:r1="45.441242"
       sodipodi:r2="22.720625"
       sodipodi:arg1="-0.30373449"
       sodipodi:arg2="0.32458404"
       inkscape:flatsided="false"
       inkscape:rounded="3.5876867e-08"
       inkscape:randomized="0"
       d="m 336.53487,279.91213 -21.82699,20.83677 4.79077,29.79324 -26.56186,-14.31979 -26.85462,13.76291 5.41086,-29.68688 -21.38784,-21.28729 29.90595,-4.02772 13.63621,-26.91918 13.07204,27.19762 z"
       transform="matrix(0.14470607,0,0,0.14470607,312.60877,84.99645)"
       inkscape:transform-center-x="-0.02118566"
       inkscape:transform-center-y="-0.60773098" /><path
       inkscape:transform-center-y="-0.60773098"
       inkscape:transform-center-x="-0.02118566"
       transform="matrix(0.14470607,0,0,0.14470607,220.70886,67.522525)"
       d="m 336.53487,279.91213 -21.82699,20.83677 4.79077,29.79324 -26.56186,-14.31979 -26.85462,13.76291 5.41086,-29.68688 -21.38784,-21.28729 29.90595,-4.02772 13.63621,-26.91918 13.07204,27.19762 z"
       inkscape:randomized="0"
       inkscape:rounded="3.5876867e-08"
       inkscape:flatsided="false"
       sodipodi:arg2="0.32458404"
       sodipodi:arg1="-0.30373449"
       sodipodi:r2="22.720625"
       sodipodi:r1="45.441242"
       sodipodi:cy="293.50296"
       sodipodi:cx="293.17365"
       sodipodi:sides="5"
       id="path3921"
       style="fill:#ff000c;fill-opacity:1"
       sodipodi:type="star" /><path
       sodipodi:type="star"
       style="fill:#ff000c;fill-opacity:1"
       id="path3923"
       sodipodi:sides="5"
       sodipodi:cx="293.17365"
       sodipodi:cy="293.50296"
       sodipodi:r1="45.441242"
       sodipodi:r2="22.720625"
       sodipodi:arg1="-0.30373449"
       sodipodi:arg2="0.32458404"
       inkscape:flatsided="false"
       inkscape:rounded="3.5876867e-08"
       inkscape:randomized="0"
       d="m 336.53487,279.91213 -21.82699,20.83677 4.79077,29.79324 -26.56186,-14.31979 -26.85462,13.76291 5.41086,-29.68688 -21.38784,-21.28729 29.90595,-4.02772 13.63621,-26.91918 13.07204,27.19762 z"
       transform="matrix(0.14470607,0,0,0.14470607,146.28288,64.286613)"
       inkscape:transform-center-x="-0.02118566"
       inkscape:transform-center-y="-0.60773098" /><path
       inkscape:transform-center-y="-0.60773098"
       inkscape:transform-center-x="-0.02118566"
       transform="matrix(0.14470607,0,0,0.14470607,113.27657,74.641537)"
       d="m 336.53487,279.91213 -21.82699,20.83677 4.79077,29.79324 -26.56186,-14.31979 -26.85462,13.76291 5.41086,-29.68688 -21.38784,-21.28729 29.90595,-4.02772 13.63621,-26.91918 13.07204,27.19762 z"
       inkscape:randomized="0"
       inkscape:rounded="3.5876867e-08"
       inkscape:flatsided="false"
       sodipodi:arg2="0.32458404"
       sodipodi:arg1="-0.30373449"
       sodipodi:r2="22.720625"
       sodipodi:r1="45.441242"
       sodipodi:cy="293.50296"
       sodipodi:cx="293.17365"
       sodipodi:sides="5"
       id="path3925"
       style="fill:#ff000c;fill-opacity:1"
       sodipodi:type="star" /><path
       sodipodi:type="star"
       style="fill:#ff000c;fill-opacity:1"
       id="path3927"
       sodipodi:sides="5"
       sodipodi:cx="293.17365"
       sodipodi:cy="293.50296"
       sodipodi:r1="45.441242"
       sodipodi:r2="22.720625"
       sodipodi:arg1="-0.30373449"
       sodipodi:arg2="0.32458404"
       inkscape:flatsided="false"
       inkscape:rounded="3.5876867e-08"
       inkscape:randomized="0"
       d="m 336.53487,279.91213 -21.82699,20.83677 4.79077,29.79324 -26.56186,-14.31979 -26.85462,13.76291 5.41086,-29.68688 -21.38784,-21.28729 29.90595,-4.02772 13.63621,-26.91918 13.07204,27.19762 z"
       transform="matrix(0.14470607,0,0,0.14470607,100.9801,160.71681)"
       inkscape:transform-center-x="-0.02118566"
       inkscape:transform-center-y="-0.60773098" /><path
       inkscape:transform-center-y="-0.60773098"
       inkscape:transform-center-x="-0.02118566"
       transform="matrix(0.14470607,0,0,0.14470607,183.81946,23.514125)"
       d="m 336.53487,279.91213 -21.82699,20.83677 4.79077,29.79324 -26.56186,-14.31979 -26.85462,13.76291 5.41086,-29.68688 -21.38784,-21.28729 29.90595,-4.02772 13.63621,-26.91918 13.07204,27.19762 z"
       inkscape:randomized="0"
       inkscape:rounded="3.5876867e-08"
       inkscape:flatsided="false"
       sodipodi:arg2="0.32458404"
       sodipodi:arg1="-0.30373449"
       sodipodi:r2="22.720625"
       sodipodi:r1="45.441242"
       sodipodi:cy="293.50296"
       sodipodi:cx="293.17365"
       sodipodi:sides="5"
       id="path3929"
       style="fill:#ff000c;fill-opacity:1"
       sodipodi:type="star" /><path
       sodipodi:type="arc"
       style="color:#000000;fill:#000000;fill-opacity:1;fill-rule:evenodd;stroke:#000000;stroke-width:1px;stroke-linecap:butt;stroke-linejoin:miter;stroke-miterlimit:4;stroke-opacity:1;stroke-dasharray:none;stroke-dashoffset:0;marker:none;visibility:visible;display:inline;overflow:visible;enable-background:accumulate"
       id="path3931"
       sodipodi:cx="329.03391"
       sodipodi:cy="237.96609"
       sodipodi:rx="10.525424"
       sodipodi:ry="10.525424"
       d="m 339.55933,237.96609 c 0,5.81304 -4.71239,10.52543 -10.52542,10.52543 -5.81304,0 -10.52543,-4.71239 -10.52543,-10.52543 0,-5.81303 4.71239,-10.52542 10.52543,-10.52542 5.81303,0 10.52542,4.71239 10.52542,10.52542 z"
       transform="matrix(0.60568794,0,0,0.60568794,96.106442,74.841375)" /></g></svg>